<?xml version="1.0" encoding="utf-8"?>
<!-- Generator: Adobe Illustrator 25.0.1, SVG Export Plug-In . SVG Version: 6.00 Build 0)  -->
<svg version="1.1" id="layer" xmlns="http://www.w3.org/2000/svg" xmlns:xlink="http://www.w3.org/1999/xlink" x="0px" y="0px"
	 viewBox="0 0 600 181.8" style="enable-background:new 0 0 600 181.8;" xml:space="preserve">
<style type="text/css">
	.st0{fill:#FFD30C;}
	.st1{clip-path:url(#SVGID_2_);fill:url(#SVGID_3_);}
	.st2{clip-path:url(#SVGID_5_);fill:url(#SVGID_6_);}
	.st3{clip-path:url(#SVGID_8_);fill:url(#SVGID_9_);}
	.st4{clip-path:url(#SVGID_11_);fill:url(#SVGID_12_);}
	.st5{clip-path:url(#SVGID_14_);fill:url(#SVGID_15_);}
	.st6{clip-path:url(#SVGID_17_);fill:url(#SVGID_18_);}
	.st7{clip-path:url(#SVGID_20_);fill:url(#SVGID_21_);}
	.st8{clip-path:url(#SVGID_23_);}
	.st9{clip-path:url(#SVGID_25_);}
	.st10{clip-path:url(#SVGID_27_);fill:url(#SVGID_28_);}
	.st11{clip-path:url(#SVGID_30_);fill:url(#SVGID_31_);}
	.st12{clip-path:url(#SVGID_33_);fill:url(#SVGID_34_);}
	.st13{clip-path:url(#SVGID_36_);fill:url(#SVGID_37_);}
	.st14{clip-path:url(#SVGID_39_);fill:url(#SVGID_40_);}
	.st15{clip-path:url(#SVGID_42_);fill:url(#SVGID_43_);}
	.st16{clip-path:url(#SVGID_45_);fill:url(#SVGID_46_);}
	.st17{clip-path:url(#SVGID_48_);fill:url(#SVGID_49_);}
	.st18{fill:#FFFFFF;}
</style>
<g>
	<polygon points="509.1,70.4 509.1,77.9 493.6,77.9 493.6,110.7 483.1,110.7 483.1,77.9 467.6,77.9 467.6,70.4 	"/>
	<polygon points="472.1,103.2 472.1,110.7 438.8,110.7 438.8,70.4 449.2,70.4 449.2,103.2 	"/>
	<polygon points="270.5,103.2 270.5,110.7 235.5,110.7 235.5,70.4 269.8,70.4 269.8,77.9 246,77.9 246,86.7 267.8,86.7 267.8,94 
		246,94 246,103.2 	"/>
	<g>
		<path d="M216.8,95.7c4.5-2.4,7.3-7.2,7.3-12.2c0-4.2-1.2-7.4-3.8-9.6c-3-2.5-7.1-3.5-13.9-3.5h-24l-0.4,2.4c0,0,0.4,0.7,0.9,1.6
			c0.7,1.3,0.7,1.7,0.7,2.5v33.7h10.5V97.7h13l7,12.9h11.5L216.8,95.7z M211.5,89.2c-0.8,0.8-1.8,1.2-3.2,1.2H194V78.1h11.2
			c3.4,0,5.2,0.4,6.4,1.4c1.2,0.9,1.8,2.4,1.8,4.5C213.3,86.2,212.7,88,211.5,89.2"/>
		<path d="M314.3,70.4v26.7c-2.4-3.1-5-6-9.3-10.8c-3.5-3.9-10.9-11.8-14.7-15.9h-10.1l-0.4,2.4c0,0,0.4,0.7,0.9,1.6
			c0.6,1,0.7,1.4,0.7,1.9v34.3h9.4V83.9c1.9,2.5,5.2,6.3,7.5,8.8c4.4,4.8,11.1,12.3,16.4,17.9h9V70.3L314.3,70.4z"/>
		<path d="M416.8,70.4V95c0,2.7-0.5,4.4-1.9,5.6c-1.7,1.6-4.5,2.3-8.5,2.3c-4.1,0-7-0.8-8.7-2.3c-1.3-1.2-1.9-2.9-1.9-5.6V70.4
			h-11.6l-0.4,2.4c0,0,0.4,0.7,0.9,1.6s0.7,1.4,0.7,1.9c0,0.1,0,19.1,0,19.1c0,10.5,7.1,15.9,20.9,15.9h0.3
			c13.8,0,20.5-5.2,20.5-15.9v-25H416.8z"/>
		<path d="M362.1,70.4H349c-4,8.2-10.9,23.3-17.3,40.3h10.5c0.8-2.3,1.7-4.6,2.6-7h21.5c0.9,2.3,1.8,4.7,2.6,7h10.5
			C373,93.8,366.1,78.6,362.1,70.4 M347.8,96.1c2.7-6.9,5.5-13.3,7.7-18.4c2.2,5,5,11.5,7.7,18.4H347.8z"/>
		<rect x="579.1" y="0" class="st0" width="20.9" height="181.8"/>
	</g>
	<g>
		<g>
			<g>
				<defs>
					<path id="SVGID_1_" d="M71.5,133.8c-7.3-14.1-12.3-23.8-19.2-39.4c-0.6-1.3-1-2.3-1-3.6c0-1.2,0.5-2.2,1-3.5
						C59.2,71.7,64.2,62,71.5,48c0.4-0.8,0.8-1.3,1.2-1.3l0,0c0.5,0,0.8,0.5,1.3,1.3c7.3,14.1,12.2,23.8,19.2,39.3
						c0.6,1.3,1,2.3,1,3.6c0,1.3-0.4,2.2-1,3.5c-7,15.6-11.9,25.3-19.2,39.4c-0.4,0.8-0.8,1.3-1.2,1.4
						C72.2,135.1,71.9,134.6,71.5,133.8 M52.8,3.8c-0.7,0.1-0.9,0.2-1.2,0.3c-0.3,0.2-0.7,0.4-1.2,1.2c-1.6,2.4-17.9,29.2-28.3,48
						C14.7,66.7,7.5,80.9,4.4,87.4c-0.8,1.7-0.9,2.9-0.9,3.4c0,0.9,0.3,2.1,0.9,3.4c3.1,6.5,10.4,20.7,17.7,34.1
						c10.4,18.9,26.6,45.7,28.3,48c0.3,0.4,0.5,0.7,0.7,0.9c0.4,0.4,0.7,0.6,1.1,0.8c0.4,0.1,1.2,0.1,1.9,0c0.4,0,0.8,0,1.2,0
						c4.2,0.1,10.6,0.3,17.4,0.3c8.4,0,18.3-0.2,19.8-0.4h0.2c0.6-0.1,0.9-0.2,1.1-0.2c0.3-0.1,0.6-0.4,1.3-1.4
						c1.7-2.3,17.8-29,28.2-47.9c7.4-13.4,14.6-27.6,17.7-34.1c0.8-1.7,0.9-3.1,0.9-3.6c0-0.9-0.3-1.9-0.9-3.2
						c-3.1-6.6-10.4-20.7-17.7-34.1C112.9,34.5,96.7,7.7,95,5.4c-0.5-0.6-0.8-1-1.2-1.3c-0.2-0.2-0.4-0.3-0.6-0.3
						c-0.4-0.1-1.3-0.1-2,0c-0.4,0.1-0.8,0-1.2,0c-3.5-0.1-10.4-0.3-17.3-0.3C64.3,3.4,54.2,3.7,52.8,3.8"/>
				</defs>
				<clipPath id="SVGID_2_">
					<use xlink:href="#SVGID_1_"  style="overflow:visible;"/>
				</clipPath>
				
					<linearGradient id="SVGID_3_" gradientUnits="userSpaceOnUse" x1="46.05" y1="259.4037" x2="56.0805" y2="259.4037" gradientTransform="matrix(0 -17.4368 17.4368 0 -4450.3701 981.2642)">
					<stop  offset="0" style="stop-color:#E5E5E8"/>
					<stop  offset="0.3125" style="stop-color:#EEEEF0"/>
					<stop  offset="0.6866" style="stop-color:#FFFFFF"/>
					<stop  offset="0.7839" style="stop-color:#DEDFE2"/>
					<stop  offset="0.9271" style="stop-color:#B3B5BB"/>
					<stop  offset="1" style="stop-color:#A2A5AC"/>
				</linearGradient>
				<rect x="3.5" y="3.4" class="st1" width="138.6" height="174.9"/>
			</g>
		</g>
	</g>
	<g>
		<g>
			<g>
				<g>
					<g>
						<g>
							<defs>
								<path id="SVGID_4_" d="M71.5,133.8c-7.3-14.1-12.3-23.8-19.2-39.4c-0.6-1.3-1-2.3-1-3.6c0-1.2,0.5-2.2,1-3.5
									C59.3,71.7,64.2,62,71.5,48c0.4-0.8,0.8-1.3,1.2-1.3l0,0c0.5,0,0.8,0.5,1.3,1.4c7.3,14.1,12.2,23.8,19.2,39.3
									c0.6,1.3,1,2.3,1,3.6c0,1.3-0.4,2.2-1,3.5c-7,15.6-11.9,25.3-19.2,39.4c-0.4,0.8-0.8,1.3-1.2,1.4
									C72.2,135.1,71.9,134.6,71.5,133.8 M52.8,3.8c-0.7,0.1-0.9,0.2-1.2,0.3c-0.3,0.2-0.7,0.4-1.2,1.2
									c-1.6,2.4-17.9,29.2-28.3,48C14.7,66.7,7.5,80.9,4.4,87.4c-0.8,1.7-0.9,2.9-0.9,3.4c0,0.9,0.3,2.1,0.9,3.4
									c3.1,6.5,10.4,20.7,17.7,34.1c10.4,18.9,26.6,45.7,28.3,48c0.3,0.4,0.5,0.7,0.7,0.9c0.4,0.4,0.7,0.6,1.1,0.8
									c0.4,0.1,1.2,0.1,1.9,0c0.4,0,0.8,0,1.2,0c4.1,0.1,10.4,0.3,17.1,0.3h0.3c8.4,0,18.3-0.2,19.8-0.4h0.2
									c0.6-0.1,0.9-0.2,1.1-0.2c0.3-0.1,0.6-0.4,1.3-1.4c1.7-2.3,17.8-29,28.2-47.9c7.4-13.4,14.6-27.6,17.7-34.1
									c0.8-1.7,0.9-3.1,0.9-3.6c0-0.9-0.3-1.9-0.9-3.2c-3.1-6.6-10.4-20.7-17.7-34.1C112.9,34.5,96.7,7.7,95,5.4
									c-0.5-0.6-0.8-1-1.2-1.3c-0.2-0.2-0.4-0.3-0.6-0.3c-0.4-0.1-1.3-0.1-2,0c-0.4,0.1-0.8,0-1.2,0c-3.5-0.1-10.4-0.3-17.3-0.3
									C64.3,3.4,54.2,3.7,52.8,3.8"/>
							</defs>
							<clipPath id="SVGID_5_">
								<use xlink:href="#SVGID_4_"  style="overflow:visible;"/>
							</clipPath>
							
								<radialGradient id="SVGID_6_" cx="-76.0571" cy="311.2981" r="10.0315" gradientTransform="matrix(8.6941 0 0 8.7264 724.9675 -2668.0234)" gradientUnits="userSpaceOnUse">
								<stop  offset="0" style="stop-color:#FFFFFF"/>
								<stop  offset="0.401" style="stop-color:#FFFFFF"/>
								<stop  offset="0.5869" style="stop-color:#DEDFE2"/>
								<stop  offset="0.8606" style="stop-color:#B3B5BB"/>
								<stop  offset="1" style="stop-color:#A2A5AC"/>
							</radialGradient>
							<rect x="3.5" y="3.4" class="st2" width="138.6" height="174.9"/>
						</g>
					</g>
				</g>
			</g>
		</g>
	</g>
	<g>
		<g>
			<g>
				<defs>
					<path id="SVGID_7_" d="M44.4,90.8c-0.6,0.6-1.6,1.1-4.2,1.1c-2.3,0-21.6,0-30.9,0c-1.4,0-3.2-0.1-3.2,2c0,1.3,1.1,3.8,3.3,8.2
						c12.2,24,25.9,47.9,40.4,71.3c0,0,2.2,3.6,2.5,3.9c0.2,0.3,0.5,0.4,1,0.4c0,0,9.3-16.9,16.7-35.4c-8.3-15.3-16-30.5-23.2-45.8
						c0,0-2-3.8-2.1-5.3c0-0.2,0-0.3,0-0.5s0-0.2-0.1-0.2C44.8,90.5,44.6,90.7,44.4,90.8"/>
				</defs>
				<clipPath id="SVGID_8_">
					<use xlink:href="#SVGID_7_"  style="overflow:visible;"/>
				</clipPath>
				
					<linearGradient id="SVGID_9_" gradientUnits="userSpaceOnUse" x1="44.1274" y1="192.5513" x2="54.159" y2="192.5513" gradientTransform="matrix(0 -8.5894 8.5894 0 -1615.7006 556.4887)">
					<stop  offset="0" style="stop-color:#E5E5E8"/>
					<stop  offset="1.042330e-02" style="stop-color:#E5E5E8"/>
					<stop  offset="0.3385" style="stop-color:#B1B5BB"/>
					<stop  offset="0.4201" style="stop-color:#999DA3"/>
					<stop  offset="0.6035" style="stop-color:#686B71"/>
					<stop  offset="0.6941" style="stop-color:#55585E"/>
					<stop  offset="0.8452" style="stop-color:#3C3E42"/>
					<stop  offset="0.8977" style="stop-color:#323438"/>
					<stop  offset="0.948" style="stop-color:#242529"/>
					<stop  offset="0.9599" style="stop-color:#27282C"/>
					<stop  offset="0.9701" style="stop-color:#313337"/>
					<stop  offset="0.9797" style="stop-color:#424449"/>
					<stop  offset="0.9888" style="stop-color:#5A5C62"/>
					<stop  offset="0.9977" style="stop-color:#787C81"/>
					<stop  offset="1" style="stop-color:#81858B"/>
				</linearGradient>
				<rect x="6.2" y="90.5" class="st3" width="64" height="87.2"/>
			</g>
		</g>
	</g>
	<g>
		<g>
			<g>
				<defs>
					<path id="SVGID_10_" d="M140.3,91.1c-0.3,0.3-1.3,0.8-3.4,0.8h-25.4c-11.7,0-10.5-0.3-13.5,5.9c-1.3,2.7-2.7,6-4.2,8.6
						c-10.2,21.3-35,64.2-38.4,69.5c-1.3,2-1.5,2.1-0.5,2.1c0,0,8.4,0.3,17.8,0.3c14.7,0,19.9-0.4,19.9-0.4
						c8.5-13.2,28.8-46.8,43.3-75.8c3.3-6.7,5-9.6,4.8-11c0-0.1-0.1-0.2-0.1-0.2C140.5,90.9,140.4,91,140.3,91.1"/>
				</defs>
				<clipPath id="SVGID_11_">
					<use xlink:href="#SVGID_10_"  style="overflow:visible;"/>
				</clipPath>
				
					<linearGradient id="SVGID_12_" gradientUnits="userSpaceOnUse" x1="44.1311" y1="198.8651" x2="54.1626" y2="198.8651" gradientTransform="matrix(0 -8.597 8.597 0 -1612.1932 556.8653)">
					<stop  offset="0" style="stop-color:#E5E5E8"/>
					<stop  offset="1.042330e-02" style="stop-color:#E5E5E8"/>
					<stop  offset="0.3385" style="stop-color:#B1B5BB"/>
					<stop  offset="0.4201" style="stop-color:#999DA3"/>
					<stop  offset="0.6035" style="stop-color:#686B71"/>
					<stop  offset="0.6941" style="stop-color:#55585E"/>
					<stop  offset="0.8452" style="stop-color:#3C3E42"/>
					<stop  offset="0.9007" style="stop-color:#323438"/>
					<stop  offset="0.9538" style="stop-color:#242529"/>
					<stop  offset="0.9643" style="stop-color:#27282C"/>
					<stop  offset="0.9734" style="stop-color:#313337"/>
					<stop  offset="0.9819" style="stop-color:#424449"/>
					<stop  offset="0.9901" style="stop-color:#5A5C62"/>
					<stop  offset="0.998" style="stop-color:#787C81"/>
					<stop  offset="1" style="stop-color:#81858B"/>
				</linearGradient>
				<rect x="54" y="90.9" class="st4" width="86.9" height="87.4"/>
			</g>
		</g>
	</g>
	<g>
		<g>
			<g>
				<defs>
					<path id="SVGID_13_" d="M91.9,4c-0.6,0-1,0.5-1.9,1.8c-7.2,11.1-32,57.9-42.2,79.7c-1.2,2.7-1.9,4-1.9,5.3h5.3
						c0-1.2,0.5-2.2,1-3.5C59.1,71.7,64.1,62,71.4,48c0.4-0.8,0.8-1.3,1.2-1.3l2.1-6C81.9,22.8,92,4,91.9,4L91.9,4z"/>
				</defs>
				<clipPath id="SVGID_14_">
					<use xlink:href="#SVGID_13_"  style="overflow:visible;"/>
				</clipPath>
				
					<linearGradient id="SVGID_15_" gradientUnits="userSpaceOnUse" x1="53.2256" y1="196.6932" x2="63.2566" y2="196.6932" gradientTransform="matrix(0 -8.6532 8.6532 0 -1633.0253 550.8853)">
					<stop  offset="0" style="stop-color:#55585E"/>
					<stop  offset="1.055729e-02" style="stop-color:#494B50"/>
					<stop  offset="2.425959e-02" style="stop-color:#3F4145"/>
					<stop  offset="4.003730e-02" style="stop-color:#3C3E42"/>
					<stop  offset="0.1019" style="stop-color:#393B3F"/>
					<stop  offset="0.1498" style="stop-color:#303235"/>
					<stop  offset="0.1931" style="stop-color:#212225"/>
					<stop  offset="0.2334" style="stop-color:#0C0D0E"/>
					<stop  offset="0.2521" style="stop-color:#000000"/>
					<stop  offset="1" style="stop-color:#000000"/>
				</linearGradient>
				<rect x="46" y="4" class="st5" width="46" height="86.8"/>
			</g>
		</g>
	</g>
	<g>
		<g>
			<g>
				<defs>
					<path id="SVGID_16_" d="M72.7,46.6L72.7,46.6c0.5,0,0.8,0.5,1.3,1.3C81.3,62,86.2,71.7,93.2,87.2c0.6,1.3,1,2.3,1,3.6l0,0l0,0
						h5.3c0-1.3-0.6-2.6-1.8-5.2c-7-14.9-14.3-29.4-22.8-45L72.7,46.6z"/>
				</defs>
				<clipPath id="SVGID_17_">
					<use xlink:href="#SVGID_16_"  style="overflow:visible;"/>
				</clipPath>
				
					<linearGradient id="SVGID_18_" gradientUnits="userSpaceOnUse" x1="56.9185" y1="109.4942" x2="66.9399" y2="109.4942" gradientTransform="matrix(0 -5.0093 5.0093 0 -462.4395 376.0219)">
					<stop  offset="0" style="stop-color:#8B8E94"/>
					<stop  offset="0.152" style="stop-color:#85888E"/>
					<stop  offset="0.3554" style="stop-color:#75787D"/>
					<stop  offset="0.5869" style="stop-color:#5A5D61"/>
					<stop  offset="0.7954" style="stop-color:#3C3E42"/>
					<stop  offset="0.823" style="stop-color:#37393C"/>
					<stop  offset="0.8589" style="stop-color:#28292C"/>
					<stop  offset="0.8993" style="stop-color:#101011"/>
					<stop  offset="0.9207" style="stop-color:#000000"/>
					<stop  offset="1" style="stop-color:#000000"/>
				</linearGradient>
				<rect x="72.7" y="40.7" class="st6" width="26.7" height="50.2"/>
			</g>
		</g>
	</g>
	<g>
		<g>
			<g>
				<defs>
					<path id="SVGID_19_" d="M46,90.8c0,1.3,0.6,2.6,1.8,5.3c7,14.9,14.3,29.4,22.8,45l2.1-6c-0.5,0-0.8-0.5-1.2-1.4
						c-7.3-14-12.3-23.7-19.2-39.3c-0.6-1.3-1-2.3-1-3.6h-4.5H46z"/>
				</defs>
				<clipPath id="SVGID_20_">
					<use xlink:href="#SVGID_19_"  style="overflow:visible;"/>
				</clipPath>
				
					<linearGradient id="SVGID_21_" gradientUnits="userSpaceOnUse" x1="47.8782" y1="104.8066" x2="57.9147" y2="104.8066" gradientTransform="matrix(0 -5.0117 5.0117 0 -465.8593 381.1567)">
					<stop  offset="0" style="stop-color:#C6C8CC"/>
					<stop  offset="0.3571" style="stop-color:#C6C8CC"/>
					<stop  offset="0.4869" style="stop-color:#C0C2C7"/>
					<stop  offset="0.6562" style="stop-color:#B0B3B7"/>
					<stop  offset="0.8464" style="stop-color:#95999E"/>
					<stop  offset="0.9631" style="stop-color:#81858B"/>
					<stop  offset="1" style="stop-color:#55585E"/>
				</linearGradient>
				<rect x="46" y="90.8" class="st7" width="26.8" height="50.3"/>
			</g>
		</g>
	</g>
	<g>
		<g>
			<g>
				<defs>
					<path id="SVGID_22_" d="M47.9,96.1c7,14.9,14.3,29.4,22.8,45l2.1-6c-0.5,0-0.8-0.5-1.2-1.4c-7.4-14-12.4-23.7-19.3-39.3
						c-0.6-1.3-1-2.3-1-3.6l0,0H46C46,92.1,46.6,93.5,47.9,96.1"/>
				</defs>
				<clipPath id="SVGID_23_">
					<use xlink:href="#SVGID_22_"  style="overflow:visible;"/>
				</clipPath>
				<g class="st8">
					<g>
						<g>
							<g>
								<defs>
									<rect id="SVGID_24_" x="27.1" y="80.8" width="64.4" height="70.3"/>
								</defs>
								<clipPath id="SVGID_25_">
									<use xlink:href="#SVGID_24_"  style="overflow:visible;"/>
								</clipPath>
								<g class="st9">
									<g>
										<g>
											<defs>
												<polygon id="SVGID_26_" points="27.1,132.6 68.2,151.1 91.6,99.3 50.5,80.8 												"/>
											</defs>
											<clipPath id="SVGID_27_">
												<use xlink:href="#SVGID_26_"  style="overflow:visible;"/>
											</clipPath>
											
												<linearGradient id="SVGID_28_" gradientUnits="userSpaceOnUse" x1="243.2708" y1="235.8215" x2="253.3024" y2="235.8215" gradientTransform="matrix(-4.5589 -2.0564 2.0564 -4.5589 702.9529 1700.1146)">
												<stop  offset="0" style="stop-color:#F1F2F1"/>
												<stop  offset="1.320000e-02" style="stop-color:#F1F2F1"/>
												<stop  offset="0.1096" style="stop-color:#EEEDEE"/>
												<stop  offset="1" style="stop-color:#EEEDEE"/>
											</linearGradient>
											<polygon class="st10" points="118,92.7 38,56.6 0.8,139.3 80.7,175.3 											"/>
										</g>
									</g>
								</g>
							</g>
						</g>
					</g>
				</g>
			</g>
		</g>
	</g>
	<g>
		<g>
			<g>
				<defs>
					<path id="SVGID_29_" d="M94.2,90.9c0,1.3-0.4,2.2-1,3.5c-7,15.6-11.9,25.3-19.2,39.4c-0.4,0.8-0.8,1.3-1.2,1.4l-2.1,6
						c-7.5,18.9-17.2,36.6-17.2,36.6c0.6,0,1.3-0.7,2.1-1.9c0.2-0.3,0.5-0.8,0.8-1.4c5.4-9.2,31.5-57.4,41.2-78.2
						c1.2-2.7,1.9-4,1.9-5.3h-5.3V90.9z"/>
				</defs>
				<clipPath id="SVGID_30_">
					<use xlink:href="#SVGID_29_"  style="overflow:visible;"/>
				</clipPath>
				
					<linearGradient id="SVGID_31_" gradientUnits="userSpaceOnUse" x1="44.1901" y1="197.5315" x2="54.2271" y2="197.5315" gradientTransform="matrix(0 -8.658 8.658 0 -1633.8281 559.7724)">
					<stop  offset="0" style="stop-color:#FFFFFF"/>
					<stop  offset="0.262" style="stop-color:#F5F5F6"/>
					<stop  offset="0.7126" style="stop-color:#D9DADD"/>
					<stop  offset="0.9693" style="stop-color:#C6C8CC"/>
					<stop  offset="0.9713" style="stop-color:#C0C2C7"/>
					<stop  offset="0.9913" style="stop-color:#8B8E94"/>
					<stop  offset="1" style="stop-color:#8B8E94"/>
				</linearGradient>
				<rect x="53.4" y="90.9" class="st11" width="46" height="86.9"/>
			</g>
		</g>
	</g>
	<g>
		<g>
			<g>
				<defs>
					<path id="SVGID_32_" d="M0.1,90.9c0,1.2,0.3,2.7,1.3,4.9c2.4,5.2,9.2,18.5,17.8,34.3c9.4,17.2,26.6,45.8,28.5,48.4
						c0.8,1.1,1.4,1.7,2.1,2.1l1.4-3.3c-0.2-0.2-0.5-0.5-0.7-0.9c-1.7-2.3-17.9-29.2-28.3-48C14.8,115,7.6,100.8,4.5,94.3
						c-0.6-1.3-0.9-2.5-0.9-3.4H0.1z"/>
				</defs>
				<clipPath id="SVGID_33_">
					<use xlink:href="#SVGID_32_"  style="overflow:visible;"/>
				</clipPath>
				
					<linearGradient id="SVGID_34_" gradientUnits="userSpaceOnUse" x1="43.9663" y1="196.368" x2="53.9954" y2="196.368" gradientTransform="matrix(0 -8.944 8.944 0 -1730.665 573.835)">
					<stop  offset="0" style="stop-color:#81858B"/>
					<stop  offset="0.1214" style="stop-color:#7C8086"/>
					<stop  offset="0.5586" style="stop-color:#707379"/>
					<stop  offset="0.9698" style="stop-color:#6C6F75"/>
					<stop  offset="1" style="stop-color:#9EA2A8"/>
				</linearGradient>
				<rect x="0.1" y="90.9" class="st12" width="51.1" height="89.7"/>
			</g>
		</g>
	</g>
	<g>
		<g>
			<g>
				<defs>
					<path id="SVGID_35_" d="M49.8,180.6c0.9,0.6,1.8,0.7,2.8,0.8c2.5,0.2,13.7,0.4,20.2,0.4s18.5-0.3,20.2-0.4
						c0.8-0.1,1.5-0.2,2.3-0.5l-1.4-3.2c-0.2,0.1-0.5,0.2-1.1,0.2h-0.2c-1.5,0.2-11.3,0.4-19.8,0.4c-6.8,0-13.2-0.1-17.4-0.3
						c-0.4,0-0.8,0-1.2,0c-0.7,0.1-1.5,0.1-1.9,0s-0.7-0.4-1.1-0.8L49.8,180.6z"/>
				</defs>
				<clipPath id="SVGID_36_">
					<use xlink:href="#SVGID_35_"  style="overflow:visible;"/>
				</clipPath>
				
					<linearGradient id="SVGID_37_" gradientUnits="userSpaceOnUse" x1="-185.1545" y1="463.0553" x2="-175.123" y2="463.0553" gradientTransform="matrix(3.4443 1.9886 -1.9886 3.4443 1614.0693 -1056.9337)">
					<stop  offset="0" style="stop-color:#81858B"/>
					<stop  offset="1.931200e-02" style="stop-color:#81858B"/>
					<stop  offset="3.745127e-02" style="stop-color:#6C6F75"/>
					<stop  offset="6.074161e-02" style="stop-color:#585B60"/>
					<stop  offset="8.351087e-02" style="stop-color:#4C4E53"/>
					<stop  offset="0.105" style="stop-color:#484A4F"/>
					<stop  offset="1" style="stop-color:#484A4F"/>
				</linearGradient>
				<polygon class="st13" points="47.8,180.7 83.8,201.4 97.1,178.4 61.1,157.7 				"/>
			</g>
		</g>
	</g>
	<g>
		<g>
			<g>
				<defs>
					<path id="SVGID_38_" d="M93.9,4c0.4,0.3,0.7,0.7,1.2,1.3c1.7,2.3,17.9,29.2,28.3,48c7.4,13.4,14.6,27.6,17.7,34.1
						c0.6,1.3,0.9,2.3,0.9,3.2l3.4,0.2l0,0c0-0.9-0.2-2.7-1.3-4.9c-2.6-5.4-10.9-21.7-17.8-34.3C117,34.7,99.8,5.9,97.8,3.2
						c-1-1.4-1.8-2.1-2.6-2.4L93.9,4z"/>
				</defs>
				<clipPath id="SVGID_39_">
					<use xlink:href="#SVGID_38_"  style="overflow:visible;"/>
				</clipPath>
				
					<linearGradient id="SVGID_40_" gradientUnits="userSpaceOnUse" x1="-64.7768" y1="368.9308" x2="-54.7454" y2="368.9308" gradientTransform="matrix(7.6345 4.1798 -4.1798 7.6345 2118.4797 -2520.7021)">
					<stop  offset="0" style="stop-color:#787A80"/>
					<stop  offset="1" style="stop-color:#8B8E94"/>
				</linearGradient>
				<polygon class="st14" points="56,70.1 133.6,112.6 183.4,21.6 105.8,-20.9 				"/>
			</g>
		</g>
	</g>
	<g>
		<g>
			<g>
				<defs>
					<path id="SVGID_41_" d="M52.4,0.4c-0.9,0.1-1.5,0.2-2.1,0.5l1.4,3.3c0.3-0.1,0.5-0.3,1.2-0.3c1.3-0.1,11.5-0.4,19.9-0.4
						c6.9,0,13.8,0.2,17.3,0.3c0.4,0,0.8,0,1.2,0c0.7-0.1,1.6-0.1,2,0c0.2,0.1,0.4,0.2,0.6,0.3L95.2,1c-0.8-0.4-1.5-0.4-2.4-0.5
						c-2.7-0.3-14.1-0.4-20.1-0.4C67.5,0,55.2,0.1,52.4,0.4"/>
				</defs>
				<clipPath id="SVGID_42_">
					<use xlink:href="#SVGID_41_"  style="overflow:visible;"/>
				</clipPath>
				
					<linearGradient id="SVGID_43_" gradientUnits="userSpaceOnUse" x1="290.7212" y1="280.0685" x2="300.7527" y2="280.0685" gradientTransform="matrix(-4.1354 -1.1858 1.1858 -4.1354 963.2957 1510.8326)">
					<stop  offset="0" style="stop-color:#787A80"/>
					<stop  offset="9.552040e-03" style="stop-color:#787A80"/>
					<stop  offset="3.583494e-02" style="stop-color:#979AA0"/>
					<stop  offset="5.849867e-02" style="stop-color:#AAAEB4"/>
					<stop  offset="7.376030e-02" style="stop-color:#B1B5BB"/>
					<stop  offset="0.5011" style="stop-color:#C4C8CB"/>
					<stop  offset="1" style="stop-color:#C6C8CC"/>
				</linearGradient>
				<polygon class="st15" points="96.3,0.3 53.7,-11.9 49.2,3.8 91.8,16 				"/>
			</g>
		</g>
	</g>
	<g>
		<g>
			<g>
				<defs>
					<path id="SVGID_44_" d="M47.6,3.4C45.6,6,28.4,35,19.2,51.7C12.7,63.4,2.3,83.8,1.4,86c-1,2.2-1.3,3.7-1.3,4.9h3.4
						c0-0.5,0.1-1.7,0.9-3.4c3.1-6.6,10.4-20.7,17.7-34.1c10.4-18.9,26.7-45.7,28.3-48c0.6-0.8,0.9-1,1.2-1.2l-1.4-3.3
						C49.2,1.3,48.6,2.1,47.6,3.4"/>
				</defs>
				<clipPath id="SVGID_45_">
					<use xlink:href="#SVGID_44_"  style="overflow:visible;"/>
				</clipPath>
				
					<linearGradient id="SVGID_46_" gradientUnits="userSpaceOnUse" x1="-84.2167" y1="260.2323" x2="-74.1852" y2="260.2323" gradientTransform="matrix(7.3747 -2.8309 2.8309 7.3747 -127.3462 -2097.2837)">
					<stop  offset="0" style="stop-color:#9EA2A8"/>
					<stop  offset="0.9868" style="stop-color:#8B8E94"/>
					<stop  offset="0.997" style="stop-color:#B8BABF"/>
					<stop  offset="1" style="stop-color:#C6C8CC"/>
				</linearGradient>
				<polygon class="st16" points="6.7,108.1 81.7,79.3 45,-16.4 -30.1,12.4 				"/>
			</g>
		</g>
	</g>
	<g>
		<g>
			<g>
				<defs>
					<path id="SVGID_47_" d="M93.8,177.7L93.8,177.7L93.8,177.7z M141.1,94.3c-3.1,6.6-10.4,20.7-17.7,34.1
						C113,147.3,96.8,174,95.2,176.3c-0.7,1-1,1.2-1.3,1.4l1.4,3.2c0.8-0.4,1.7-1.1,2.6-2.4c1.9-2.6,20.4-33.4,28.5-48.4
						c8.2-15,16.9-32.2,17.8-34.3c1.2-2.6,1.3-4,1.3-4.9l-3.4-0.2C142,91.2,141.9,92.6,141.1,94.3"/>
				</defs>
				<clipPath id="SVGID_48_">
					<use xlink:href="#SVGID_47_"  style="overflow:visible;"/>
				</clipPath>
				
					<linearGradient id="SVGID_49_" gradientUnits="userSpaceOnUse" x1="43.9584" y1="206.4582" x2="53.9877" y2="206.4582" gradientTransform="matrix(0 -8.9936 8.9936 0 -1737.202 576.2439)">
					<stop  offset="0" style="stop-color:#484A4F"/>
					<stop  offset="1.902380e-02" style="stop-color:#484A4F"/>
					<stop  offset="0.2412" style="stop-color:#52555A"/>
					<stop  offset="0.6025" style="stop-color:#5D6165"/>
					<stop  offset="0.9698" style="stop-color:#616569"/>
					<stop  offset="0.9767" style="stop-color:#6B6F74"/>
					<stop  offset="1" style="stop-color:#8B8E94"/>
				</linearGradient>
				<rect x="93.8" y="90.7" class="st17" width="51.6" height="90.2"/>
			</g>
		</g>
	</g>
	<g>
		<path class="st18" d="M91.2,3.7c0.1,0,0.1,0,0.2,0c0,0-0.9,0.7-3.1,0.7c-2.6,0-8.1-0.1-12.4-0.2c-8.1-0.1-17.7,0.1-22.2,0.3
			c-2.4,0.1-2.5,0.4-4,2l0.8-1.2c0.5-0.8,0.9-1,1.2-1.2C52,4,52.2,3.8,52.9,3.8c1.3-0.1,11.5-0.4,19.9-0.4c6.9,0,13.8,0.2,17.3,0.3
			C90.4,3.7,90.9,3.7,91.2,3.7"/>
	</g>
	<g>
		<path d="M93.2,87.3c-0.3-0.6-4.2-9.4-8.7-18.6c-4.9-10-10.3-20.3-10.5-20.8c-0.4-0.8-0.8-1.4-1.2-1.4c-0.5,0-0.8,0.5-1.3,1.4
			c-0.2,0.4-5.8,11.1-10.6,20.8c-4.7,9.6-8.4,18.1-8.6,18.6c-0.5,1.1-1,2.3-1,3.5s0.5,2.3,1,3.6c0.3,0.6,4.2,9.5,8.7,18.6
			c4.9,10,10.3,20.3,10.5,20.7c0.4,0.8,0.8,1.4,1.2,1.4c0.5,0,0.8-0.5,1.2-1.3c0.2-0.4,5.6-10.7,10.5-20.7c4.5-9.1,8.4-18,8.7-18.7
			c0.6-1.4,1-2.3,1-3.5C94.2,89.7,93.8,88.7,93.2,87.3 M92.3,94L92.3,94c-0.1,0.2-4.1,9.2-8.7,18.7c-4.2,8.5-8.7,17.2-10.4,20.5
			l-0.1,0.2c-0.2,0.3-0.3,0.6-0.4,0.6s-0.2-0.2-0.4-0.6c0-0.1-0.1-0.2-0.3-0.5c-4.9-9.4-8.3-16.1-10.2-20.2
			c-4.4-9.1-8.4-17.9-8.7-18.6V94c-0.5-1.2-0.9-2.1-0.9-3.1s0.5-2.1,0.9-3.1c0-0.1,0.1-0.2,0.2-0.5c2.8-6.4,5.6-12.4,8.4-18
			c4.9-9.9,10.5-20.6,10.5-20.7c0.1-0.3,0.3-0.6,0.4-0.6s0.2,0.3,0.4,0.6c0,0.1,5.5,10.5,10.5,20.7c4.4,9,8.2,17.6,8.6,18.6
			c0.6,1.3,0.9,2.1,0.9,3.2C93.2,91.9,92.9,92.7,92.3,94"/>
		<path d="M144.2,86c-2.6-5.5-10.9-21.7-17.8-34.3C116.8,34.4,99.8,5.9,97.9,3.3c-1.9-2.6-3-2.7-4.8-2.9h-0.3
			C90.2,0.1,79.3,0,72.7,0c-5.6,0-17.6,0.1-20.4,0.4c-2.6,0.3-3.3,1.1-4.8,3c-2.1,2.7-19.4,32-28.4,48.3C12.6,63.5,2.2,83.8,1.3,86
			C0.4,88,0,89.5,0,90.9s0.4,3,1.3,4.9c2.2,4.7,8.7,17.7,17.8,34.3c9.5,17.3,26.7,45.9,28.5,48.4c1.9,2.6,3.2,2.7,4.9,2.9
			c2.6,0.2,14.1,0.4,20.2,0.4c6.6,0,18.5-0.3,20.2-0.4c1.6-0.2,3-0.3,4.9-2.9c1.7-2.4,20.2-33.2,28.5-48.4c8-14.5,16.8-32,17.8-34.3
			c1.1-2.5,1.3-3.8,1.3-4.9C145.5,90,145.3,88.3,144.2,86 M143.3,95.4c-1,2.3-9.8,19.7-17.8,34.2c-8.3,15.2-26.7,45.9-28.5,48.3
			c-1.6,2.3-2.7,2.3-4.2,2.5c-1.6,0.2-13.5,0.4-20.1,0.4c-6.1,0-17.5-0.2-20.1-0.4c-1.6-0.1-2.5-0.2-4.2-2.5
			c-1.8-2.5-19-31-28.5-48.3C10.8,113,4.3,100,2.1,95.4c-0.8-1.8-1.2-3.2-1.2-4.5c0-1.2,0.4-2.6,1.2-4.5c1-2.2,11.3-22.5,17.8-34.2
			c9-16.3,26.3-45.5,28.3-48.1c1.4-1.9,1.9-2.4,4.1-2.6C55,1.2,67,1.1,72.6,1.1c6.6,0,17.4,0.1,20,0.4h0.3C94.6,1.7,95.3,1.8,97,4
			c1.9,2.6,18.9,31,28.5,48.3c7,12.6,15.2,28.8,17.8,34.3c1,2.1,1.2,3.7,1.2,4.5C144.5,91.8,144.3,93,143.3,95.4"/>
		<path d="M193.5,130.3c6.3,0,9,2.4,9,7.9s-2.7,7.9-9,7.9h-7v9.9h-3.1v-23.2c0-0.3-0.1-0.4-0.4-0.5l-1.1-0.5l0.3-1.4L193.5,130.3
			L193.5,130.3z M186.5,143.5h6.8c4.4,0,6.1-1.6,6.1-5.4s-1.8-5.4-6.1-5.4h-6.8V143.5z"/>
		<path d="M217.8,154c-1.1,1.6-3.3,2.4-6.3,2.4c-4.8,0-7.1-1.7-7.1-5.5c0-3.7,2.3-5.4,7.5-5.4c2,0,3.9,0.3,5.4,0.8v-2.6
			c0-3.2-1.6-4.4-5.5-4.4c-1.9,0-3.8,0.3-5.7,0.9v-2.4c1.9-0.6,3.9-0.9,6.1-0.9c5.7,0,8.1,2.1,8.1,7.1v9.3c0,0.3,0,0.4,0.3,0.5
			l1.2,0.5l-0.3,1.6h-3.2c-0.2,0-0.3,0-0.4-0.3L217.8,154z M217.4,148.4c-1.5-0.6-3.1-0.8-5-0.8c-3.5,0-4.9,0.9-4.9,3.3
			c0,2.3,1.4,3.3,4.6,3.3c3.7,0,5.3-1.3,5.3-4.1L217.4,148.4L217.4,148.4z"/>
		<path d="M232.4,136.9c2.1,0,4.1,0.3,6,0.8l-0.5,2.4c-1.8-0.6-3.5-0.8-5.3-0.8c-3.1,0-4.6,1-4.6,2.9c0,4.5,11.2,1.1,11.2,8.5
			c0,3.7-2.7,5.6-7.4,5.6c-2.4,0-4.5-0.3-6.5-0.9v-2.5c2,0.7,4.1,1,6.3,1c3.2,0,4.7-1.2,4.7-3.2c0-5-11.2-1.2-11.2-8.5
			C225,138.7,227.7,136.9,232.4,136.9"/>
		<path d="M249.8,136.9c2.1,0,4.1,0.3,6,0.8l-0.5,2.4c-1.8-0.6-3.5-0.8-5.3-0.8c-3.1,0-4.6,1-4.6,2.9c0,4.5,11.2,1.1,11.2,8.5
			c0,3.7-2.7,5.6-7.5,5.6c-2.4,0-4.5-0.3-6.5-0.9v-2.5c2,0.7,4.1,1,6.3,1c3.2,0,4.7-1.2,4.7-3.2c0-5-11.2-1.2-11.2-8.5
			C242.4,138.7,245.2,136.9,249.8,136.9"/>
		<path d="M260.3,137.4h3.9c0.3,0,0.3,0.1,0.3,0.4V156h-3.1v-15.9c0-0.3,0-0.4-0.3-0.5l-1.1-0.5L260.3,137.4z M262.9,129.8
			c1.4,0,2,0.6,2,1.9s-0.6,1.9-2,1.9s-2-0.6-2-1.9C260.9,130.3,261.5,129.8,262.9,129.8"/>
		<path d="M278.3,136.9c6.4,0,9.1,2.9,9.1,9.7c0,6.9-2.7,9.7-9.1,9.7s-9.2-2.9-9.2-9.7C269.2,139.8,271.9,136.9,278.3,136.9
			 M278.3,153.9c4.2,0,6-2.1,6-7.3c0-5.2-1.8-7.3-6-7.3c-4.3,0-6,2.1-6,7.3C272.3,151.8,274,153.9,278.3,153.9"/>
		<path d="M308,153.3c0,0.3,0,0.4,0.3,0.5l1.1,0.5l-0.3,1.6h-3.9c-0.3,0-0.3-0.1-0.3-0.4v-11.2c0-3.6-1.3-4.9-4.7-4.9
			c-2.4,0-4.7,0.8-5.5,1.4v15.1h-3.1v-16c0-0.3,0-0.4-0.3-0.5l-1.1-0.5l0.3-1.6h3.9c0.3,0,0.3,0.1,0.3,0.4v1.3
			c1.3-1.2,3.3-2.1,6-2.1c5.1,0,7.2,2.1,7.2,7.4v9L308,153.3L308,153.3z"/>
		<path d="M326.9,137.4h5.6v2.4h-5.6v16.1h-3.1v-15.7c0-0.4,0-0.5-0.4-0.6l-2.2-0.6l0.3-1.7h2.3v-2.4c0-4.5,1.9-6.3,6.5-6.3
			c1.5,0,2.7,0.2,3.5,0.5l-0.5,2.4c-0.8-0.3-1.8-0.4-2.6-0.4c-2.7,0-3.8,1.1-3.8,3.8L326.9,137.4L326.9,137.4z"/>
		<path d="M343.5,136.9c6.4,0,9.1,2.9,9.1,9.7c0,6.9-2.7,9.7-9.1,9.7s-9.2-2.9-9.2-9.7C334.4,139.8,337.1,136.9,343.5,136.9
			 M343.5,153.9c4.2,0,6-2.1,6-7.3c0-5.2-1.8-7.3-6-7.3c-4.3,0-6,2.1-6,7.3C337.5,151.8,339.2,153.9,343.5,153.9"/>
		<path d="M357.1,140c0-0.3,0-0.4-0.3-0.5l-1.1-0.5l0.3-1.6h3.9c0.3,0,0.3,0.1,0.3,0.4v1.9c1.4-1.8,3.4-2.7,6-2.7
			c0.6,0,1.4,0.1,1.8,0.2l-0.5,2.7c-0.5-0.1-1-0.2-1.7-0.2c-2.7,0-4.2,0.9-5.6,2v14.4h-3L357.1,140L357.1,140z"/>
		<path d="M381.9,153.3c0,0.3,0,0.4,0.3,0.5l1.1,0.5l-0.3,1.6h-3.8c-0.3,0-0.3-0.1-0.3-0.4v-23.9c0-0.3,0-0.4-0.3-0.5l-1.1-0.5
			l0.3-1.6h3.9c0.3,0,0.3,0.1,0.3,0.4L381.9,153.3L381.9,153.3z"/>
		<path d="M387.6,137.4h3.9c0.3,0,0.3,0.1,0.3,0.4V156h-3.1v-15.9c0-0.3,0-0.4-0.3-0.5l-1.1-0.5L387.6,137.4z M390.2,129.8
			c1.4,0,2,0.6,2,1.9s-0.6,1.9-2,1.9s-2-0.6-2-1.9C388.3,130.3,388.8,129.8,390.2,129.8"/>
		<path d="M402.2,137.4h5.6v2.4h-5.6v16.1h-3.1v-15.7c0-0.4,0-0.5-0.4-0.6l-2.2-0.6l0.3-1.7h2.3v-2.4c0-4.5,2-6.3,6.5-6.3
			c1.5,0,2.7,0.2,3.5,0.5l-0.5,2.4c-0.8-0.3-1.8-0.4-2.6-0.4c-2.7,0-3.8,1.1-3.8,3.8L402.2,137.4L402.2,137.4z"/>
		<path d="M418.4,136.9c5.6,0,8,2.8,8,9.4c0,0.4,0,0.8,0,1.2h-13.8c0.1,4.6,2.2,6.5,7.2,6.5c2,0,3.9-0.3,5.9-0.9v2.4
			c-1.9,0.6-3.9,0.9-6.1,0.9c-7,0-10-2.9-10-9.7C409.6,139.8,412.2,136.9,418.4,136.9 M412.6,145.4h10.9c-0.1-4.5-1.5-6.3-5.1-6.3
			C414.4,139.1,412.7,141,412.6,145.4"/>
	</g>
</g>
</svg>
