<svg xmlns="http://www.w3.org/2000/svg" viewBox="0 0 40 40"><defs><style>.cls-1{fill:#0b1f38;}</style></defs><g id="Layer_2" data-name="Layer 2"><g id="Layer_1-2" data-name="Layer 1"><path class="cls-1" d="M20,0A20,20,0,1,0,40,20,20,20,0,0,0,20,0Zm1,38V30.56a1,1,0,0,0-2,0V38A18,18,0,0,1,2.05,21H9.44a1,1,0,0,0,0-2H2.05A18,18,0,0,1,19,2.05V9.44a1,1,0,0,0,2,0V2.05A18,18,0,0,1,38,19H30.56a1,1,0,0,0,0,2H38A18,18,0,0,1,21,38Z"/><path class="cls-1" d="M20,14.78A5.22,5.22,0,1,0,25.22,20,5.22,5.22,0,0,0,20,14.78Zm0,8.44A3.22,3.22,0,1,1,23.22,20,3.22,3.22,0,0,1,20,23.22Z"/></g></g></svg>