<svg xmlns="http://www.w3.org/2000/svg" viewBox="0 0 170.05 156.5"><defs><style>.cls-1{fill:#f5a605;}</style></defs><g id="Layer_2" data-name="Layer 2"><g id="Layer_1-2" data-name="Layer 1"><path class="cls-1" d="M.05,84a82.51,82.51,0,0,1,4.5-30.25A77.76,77.76,0,0,1,19.3,28.25,86.56,86.56,0,0,1,42.3,9.5,78.06,78.06,0,0,1,71.05,0V33q-19,7-26,19t-7,31.5h32v73H.05Zm99,0a82.51,82.51,0,0,1,4.5-30.25,80,80,0,0,1,14.5-25.5,81.5,81.5,0,0,1,23-18.75,80.42,80.42,0,0,1,29-9.5V33q-19,7-26,19t-7,31.5h32v73h-70Z"/></g></g></svg>