<svg id="Layer_1" data-name="Layer 1" xmlns="http://www.w3.org/2000/svg" viewBox="0 0 58 58"><defs><style>.cls-1{fill:#0b1f38;fill-rule:evenodd;}</style></defs><path class="cls-1" d="M29,0A29,29,0,1,1,0,29,29,29,0,0,1,29,0Zm0,10.88c-4.92,0-5.54,0-7.47.1a13.27,13.27,0,0,0-4.4.85,9.26,9.26,0,0,0-5.3,5.3,13.27,13.27,0,0,0-.85,4.4c-.08,1.93-.11,2.55-.11,7.47s0,5.54.11,7.47a13.27,13.27,0,0,0,.85,4.4,9.26,9.26,0,0,0,5.3,5.3,13.27,13.27,0,0,0,4.4.85c1.93.08,2.55.11,7.47.11s5.54,0,7.47-.11a13.27,13.27,0,0,0,4.4-.85,9.26,9.26,0,0,0,5.3-5.3,13.27,13.27,0,0,0,.85-4.4c.08-1.93.11-2.55.11-7.47s0-5.54-.11-7.47a13.27,13.27,0,0,0-.85-4.4,9.26,9.26,0,0,0-5.3-5.3,13.27,13.27,0,0,0-4.4-.85C34.54,10.9,33.92,10.88,29,10.88Zm0,3.26c4.84,0,5.41,0,7.32.11a10,10,0,0,1,3.37.62,6.07,6.07,0,0,1,3.44,3.44,10,10,0,0,1,.62,3.37c.09,1.91.11,2.48.11,7.32s0,5.41-.11,7.32a10,10,0,0,1-.62,3.37,6.07,6.07,0,0,1-3.44,3.44,10,10,0,0,1-3.37.62c-1.91.09-2.48.11-7.32.11s-5.41,0-7.32-.11a10,10,0,0,1-3.37-.62,6.07,6.07,0,0,1-3.44-3.44,10,10,0,0,1-.62-3.37c-.09-1.91-.11-2.48-.11-7.32s0-5.41.11-7.32a10,10,0,0,1,.62-3.37,6.07,6.07,0,0,1,3.44-3.44,10,10,0,0,1,3.37-.62c1.91-.09,2.48-.11,7.32-.11Zm0,5.55A9.31,9.31,0,1,0,38.31,29,9.31,9.31,0,0,0,29,19.69ZM29,35a6,6,0,1,1,6-6A6,6,0,0,1,29,35ZM40.85,19.32a2.18,2.18,0,1,1-2.17-2.17A2.17,2.17,0,0,1,40.85,19.32Z"/></svg>